<svg width="28" height="13" viewBox="0 0 28 13" fill="none" xmlns="http://www.w3.org/2000/svg">
<path d="M1.008 12V10.824C1.05067 10.584 1.176 10.3093 1.384 10C1.592 9.68533 1.848 9.35733 2.152 9.016C2.456 8.67467 2.776 8.33867 3.112 8.008C3.45333 7.672 3.77333 7.36267 4.072 7.08C4.44533 6.728 4.81067 6.36267 5.168 5.984C5.53067 5.6 5.832 5.19467 6.072 4.768C6.312 4.34133 6.432 3.89333 6.432 3.424C6.432 2.72533 6.26933 2.192 5.944 1.824C5.61867 1.456 5.13067 1.272 4.48 1.272C3.95733 1.272 3.53867 1.38133 3.224 1.6C2.90933 1.81867 2.68267 2.12533 2.544 2.52C2.40533 2.91467 2.336 3.376 2.336 3.904H0.968C0.968 3.14133 1.096 2.472 1.352 1.896C1.608 1.31467 1.99733 0.863999 2.52 0.544C3.04267 0.218666 3.70133 0.0559998 4.496 0.0559998C5.22667 0.0559998 5.83733 0.2 6.328 0.488C6.81867 0.770666 7.18667 1.16533 7.432 1.672C7.68267 2.17867 7.808 2.76533 7.808 3.432C7.808 3.86933 7.72533 4.29333 7.56 4.704C7.4 5.10933 7.18933 5.496 6.928 5.864C6.66667 6.22667 6.384 6.56533 6.08 6.88C5.78133 7.18933 5.496 7.46933 5.224 7.72C4.78667 8.12 4.37333 8.50933 3.984 8.888C3.6 9.26667 3.27733 9.616 3.016 9.936C2.76 10.256 2.60533 10.5307 2.552 10.76H7.888V12H1.008ZM11.1497 12.208C10.8884 12.208 10.6671 12.12 10.4858 11.944C10.3098 11.7627 10.2218 11.5413 10.2218 11.28C10.2218 11.024 10.3098 10.8053 10.4858 10.624C10.6671 10.4427 10.8884 10.352 11.1497 10.352C11.4058 10.352 11.6244 10.4427 11.8058 10.624C11.9871 10.8053 12.0778 11.024 12.0778 11.28C12.0778 11.5413 11.9871 11.7627 11.8058 11.944C11.6244 12.12 11.4058 12.208 11.1497 12.208ZM11.1578 5.744C10.8964 5.744 10.6751 5.656 10.4938 5.48C10.3178 5.29867 10.2298 5.07733 10.2298 4.816C10.2298 4.56 10.3178 4.34133 10.4938 4.16C10.6751 3.97867 10.8964 3.888 11.1578 3.888C11.4138 3.888 11.6324 3.97867 11.8138 4.16C11.9951 4.34133 12.0858 4.56 12.0858 4.816C12.0858 5.07733 11.9951 5.29867 11.8138 5.48C11.6324 5.656 11.4138 5.744 11.1578 5.744ZM17.8348 0.16V12H16.4748V1.64C16.4321 1.69867 16.2988 1.776 16.0748 1.872C15.8561 1.968 15.5841 2.06133 15.2588 2.152C14.9388 2.23733 14.5974 2.29867 14.2348 2.336V1.104C14.5921 1.04533 14.9281 0.962667 15.2428 0.856C15.5628 0.749333 15.8348 0.634666 16.0588 0.511999C16.2828 0.384 16.4321 0.266666 16.5068 0.16H17.8348ZM25.0525 12V9.344H20.3165V8.248L24.5245 0.16H26.3885V8.144H27.9805V9.344H26.3885V12H25.0525ZM21.5005 8.88L21.0525 8.144H25.0525V1.104L25.3965 1.184L21.5005 8.88Z" fill="white"/>
</svg>
