<svg width="160" height="48" viewBox="0 0 160 48" fill="none" xmlns="http://www.w3.org/2000/svg">
<circle cx="136" cy="24" r="24" fill="#EF6D58"/>
<path fill-rule="evenodd" clip-rule="evenodd" d="M136.375 16C133.169 16 130 18.1927 130 21.7414C130 23.9983 131.237 25.2806 131.987 25.2806C132.297 25.2806 132.475 24.3958 132.475 24.1457C132.475 23.8476 131.734 23.2129 131.734 21.9723C131.734 19.3949 133.647 17.5676 136.122 17.5676C138.25 17.5676 139.825 18.8082 139.825 21.0875C139.825 22.7897 139.159 25.9826 137.003 25.9826C136.225 25.9826 135.559 25.4056 135.559 24.5785C135.559 23.3667 136.384 22.1935 136.384 20.9432C136.384 18.821 133.45 19.2057 133.45 21.7703C133.45 22.3089 133.516 22.9051 133.75 23.3956C133.319 25.2998 132.438 28.1369 132.438 30.0988C132.438 30.7046 132.522 31.3009 132.578 31.9068C132.684 32.0286 132.631 32.0158 132.794 31.9549C134.369 29.7429 134.313 29.3102 135.025 26.4154C135.409 27.1655 136.403 27.5694 137.191 27.5694C140.509 27.5694 142 24.2515 142 21.2606C142 18.0773 139.319 16 136.375 16Z" fill="white"/>
<circle cx="80" cy="24" r="24" fill="#EF6D58"/>
<path d="M88 19.54C87.412 19.8013 86.7787 19.9773 86.1147 20.0573C86.7933 19.6507 87.312 19.008 87.5587 18.2413C86.924 18.6173 86.2213 18.8907 85.4733 19.0373C84.876 18.3987 84.0213 18 83.0787 18C80.9587 18 79.4013 19.9773 79.88 22.0307C77.1533 21.8933 74.7333 20.5867 73.1147 18.6013C72.2547 20.076 72.6693 22.0067 74.1307 22.984C73.5933 22.9667 73.088 22.8187 72.6453 22.5733C72.6093 24.0933 73.7 25.516 75.2787 25.8333C74.8173 25.9587 74.3107 25.988 73.796 25.8893C74.2133 27.1933 75.428 28.1413 76.8627 28.168C75.48 29.2507 73.7427 29.7347 72 29.5293C73.4533 30.4613 75.1773 31.004 77.0307 31.004C83.1267 31.004 86.5693 25.856 86.3613 21.2387C87.004 20.7773 87.56 20.1987 88 19.54Z" fill="white"/>
<circle cx="24" cy="24" r="24" fill="#EF6D58"/>
<path d="M21.6667 21.3333H19V24H21.6667V32H25.6667V24H28.0933L28.3333 21.3333H25.6667V20.2227C25.6667 19.5853 25.7947 19.3333 26.4107 19.3333H28.3333V16H25.128C22.7307 16 21.6667 17.056 21.6667 19.0773V21.3333Z" fill="white"/>
</svg>
