<svg width="242" height="33" viewBox="0 0 242 33" fill="none" xmlns="http://www.w3.org/2000/svg">
<path d="M4.5 32L0.3 2.5H7.64L10.48 30.7L9.48 30.64L14.04 2.5H22.84L27.38 30.64L26.38 30.7L29.22 2.5H36.56L32.36 32H21.44L18.08 7.26H18.8L15.44 32H4.5ZM49.7744 32.48C47.4277 32.48 45.361 32.0133 43.5744 31.08C41.801 30.1333 40.4077 28.8267 39.3944 27.16C38.3944 25.4933 37.8944 23.5733 37.8944 21.4C37.8944 19.2133 38.3944 17.2933 39.3944 15.64C40.4077 13.9733 41.801 12.6733 43.5744 11.74C45.361 10.8067 47.4277 10.34 49.7744 10.34C52.121 10.34 54.181 10.8067 55.9544 11.74C57.741 12.6733 59.1344 13.9733 60.1344 15.64C61.1477 17.2933 61.6544 19.2133 61.6544 21.4C61.6544 23.5733 61.1477 25.4933 60.1344 27.16C59.1344 28.8267 57.741 30.1333 55.9544 31.08C54.181 32.0133 52.121 32.48 49.7744 32.48ZM49.7744 26.98C50.7344 26.98 51.561 26.7467 52.2544 26.28C52.9477 25.8133 53.481 25.1667 53.8544 24.34C54.2277 23.5 54.4144 22.52 54.4144 21.4C54.4144 20.2667 54.2277 19.2867 53.8544 18.46C53.481 17.6333 52.9477 16.9933 52.2544 16.54C51.561 16.0867 50.7344 15.86 49.7744 15.86C48.8277 15.86 48.001 16.0867 47.2944 16.54C46.601 16.9933 46.0677 17.6333 45.6944 18.46C45.321 19.2867 45.1344 20.2667 45.1344 21.4C45.1344 22.52 45.321 23.5 45.6944 24.34C46.0677 25.1667 46.601 25.8133 47.2944 26.28C48.001 26.7467 48.8277 26.98 49.7744 26.98ZM65.0481 32V10.76H72.1881V18.36L70.8481 17.4C71.0348 16.3467 71.3281 15.3867 71.7281 14.52C72.1281 13.64 72.6415 12.8933 73.2681 12.28C73.9081 11.6533 74.6481 11.1733 75.4881 10.84C76.3415 10.5067 77.3015 10.34 78.3681 10.34C79.2348 10.34 79.8948 10.4 80.3481 10.52C80.8148 10.64 81.1081 10.7333 81.2281 10.8L80.1681 17.1C80.0481 17.0333 79.7815 16.9333 79.3681 16.8C78.9548 16.6533 78.4415 16.58 77.8281 16.58C76.7748 16.58 75.8815 16.7533 75.1481 17.1C74.4281 17.4333 73.8481 17.8867 73.4081 18.46C72.9815 19.0333 72.6681 19.6733 72.4681 20.38C72.2815 21.0867 72.1881 21.7933 72.1881 22.5V32H65.0481ZM84.1888 32V0.739998H90.9488V18.22L89.6488 17.52L97.0488 10.76H105.729L95.0888 20.32L96.5488 17.74L105.449 32H97.9888L91.8688 21.46L93.7488 21.5L90.2488 24.7L90.9488 21.68V32H84.1888ZM139.082 2.5H151.122V32H144.342V6.48L144.462 6.56L139.302 32H130.102L124.822 6.5L124.942 6.44V32H118.162V2.5H130.202L134.942 28.98H134.282L139.082 2.5ZM158.668 23.42V18.96H171.968L171.368 20C171.368 19.8933 171.368 19.7867 171.368 19.68C171.368 19.56 171.368 19.4533 171.368 19.36C171.368 18.76 171.215 18.1667 170.908 17.58C170.602 16.98 170.115 16.4867 169.448 16.1C168.782 15.7 167.908 15.5 166.828 15.5C165.762 15.5 164.855 15.7267 164.108 16.18C163.375 16.62 162.815 17.2733 162.428 18.14C162.055 18.9933 161.868 20.0267 161.868 21.24C161.868 22.5067 162.048 23.5933 162.408 24.5C162.782 25.3933 163.348 26.08 164.108 26.56C164.868 27.0267 165.842 27.26 167.028 27.26C167.762 27.26 168.388 27.2 168.908 27.08C169.442 26.96 169.868 26.8067 170.188 26.62C170.522 26.42 170.768 26.2067 170.928 25.98C171.102 25.74 171.208 25.5067 171.248 25.28H178.288C178.208 26.2 177.888 27.0933 177.328 27.96C176.768 28.8133 175.995 29.5867 175.008 30.28C174.035 30.96 172.848 31.5 171.448 31.9C170.062 32.3 168.488 32.5 166.728 32.5C164.315 32.5 162.215 32.0333 160.428 31.1C158.642 30.1533 157.255 28.8467 156.268 27.18C155.295 25.5133 154.808 23.5933 154.808 21.42C154.808 19.2067 155.308 17.2733 156.308 15.62C157.308 13.9533 158.702 12.66 160.488 11.74C162.288 10.8067 164.368 10.34 166.728 10.34C169.168 10.34 171.275 10.8133 173.048 11.76C174.822 12.6933 176.188 14.0133 177.148 15.72C178.108 17.4267 178.588 19.4333 178.588 21.74C178.588 22.1 178.582 22.4267 178.568 22.72C178.555 23.0133 178.535 23.2467 178.508 23.42H158.668ZM190.862 32.5C189.089 32.5 187.442 32.08 185.922 31.24C184.416 30.3867 183.202 29.1267 182.282 27.46C181.362 25.7933 180.902 23.7267 180.902 21.26C180.902 18.9133 181.376 16.9267 182.322 15.3C183.269 13.6733 184.502 12.44 186.022 11.6C187.542 10.76 189.156 10.34 190.862 10.34C192.556 10.34 194.096 10.78 195.482 11.66C196.869 12.5267 197.976 13.7133 198.802 15.22C199.629 16.7267 200.042 18.4533 200.042 20.4C200.042 20.4667 200.042 20.5333 200.042 20.6C200.042 20.6667 200.042 20.74 200.042 20.82L197.282 20.84C197.282 20.8 197.282 20.76 197.282 20.72C197.282 20.6667 197.282 20.62 197.282 20.58C197.282 19.6333 197.056 18.84 196.602 18.2C196.162 17.5467 195.602 17.0533 194.922 16.72C194.242 16.3733 193.536 16.2 192.802 16.2C191.616 16.2 190.562 16.6 189.642 17.4C188.722 18.1867 188.262 19.4733 188.262 21.26C188.262 23.0467 188.722 24.3533 189.642 25.18C190.562 26.0067 191.616 26.42 192.802 26.42C193.562 26.42 194.282 26.24 194.962 25.88C195.642 25.52 196.196 25.0067 196.622 24.34C197.062 23.66 197.282 22.8533 197.282 21.92L200.042 22.08C200.042 24.0133 199.629 25.7667 198.802 27.34C197.989 28.9133 196.889 30.1667 195.502 31.1C194.116 32.0333 192.569 32.5 190.862 32.5ZM197.282 32V0.739998H204.422V32H197.282ZM208.359 32V10.76H215.419V32H208.359ZM211.879 7.78C210.812 7.78 209.872 7.5 209.059 6.94C208.259 6.38 207.859 5.58666 207.859 4.56C207.859 3.52 208.259 2.72667 209.059 2.18C209.872 1.62 210.812 1.34 211.879 1.34C212.959 1.34 213.899 1.62 214.699 2.18C215.499 2.72667 215.899 3.52 215.899 4.56C215.899 5.6 215.499 6.4 214.699 6.96C213.899 7.50666 212.959 7.78 211.879 7.78ZM226.543 32.46C225.01 32.46 223.643 32.22 222.443 31.74C221.243 31.2467 220.296 30.5333 219.603 29.6C218.91 28.6667 218.563 27.5333 218.563 26.2C218.563 24.6667 218.996 23.4267 219.863 22.48C220.73 21.52 221.856 20.7933 223.243 20.3C224.63 19.7933 226.096 19.4667 227.643 19.32C229.883 19.1067 231.41 18.92 232.223 18.76C233.05 18.5867 233.463 18.2933 233.463 17.88C233.463 17.8667 233.463 17.86 233.463 17.86C233.463 17.8467 233.463 17.84 233.463 17.84C233.463 17.2 233.123 16.68 232.443 16.28C231.776 15.88 230.856 15.68 229.683 15.68C228.443 15.68 227.503 15.9067 226.863 16.36C226.236 16.8 225.923 17.4733 225.923 18.38H218.883C218.883 16.6333 219.363 15.1667 220.323 13.98C221.296 12.78 222.603 11.8733 224.243 11.26C225.883 10.6467 227.716 10.34 229.743 10.34C231.663 10.34 233.443 10.6267 235.083 11.2C236.736 11.7733 238.07 12.6467 239.083 13.82C240.11 14.9933 240.623 16.4867 240.623 18.3C240.623 18.58 240.623 18.86 240.623 19.14C240.623 19.42 240.623 19.7 240.623 19.98V27.02C240.623 27.58 240.636 28.1267 240.663 28.66C240.69 29.18 240.763 29.66 240.883 30.1C241.03 30.58 241.21 30.9867 241.423 31.32C241.65 31.6533 241.83 31.88 241.963 32H234.983C234.876 31.8933 234.716 31.6867 234.503 31.38C234.303 31.0733 234.13 30.72 233.983 30.32C233.81 29.7867 233.683 29.2733 233.603 28.78C233.523 28.2733 233.483 27.6733 233.483 26.98L235.003 28.02C234.63 28.94 234.016 29.7333 233.163 30.4C232.323 31.0667 231.33 31.58 230.183 31.94C229.036 32.2867 227.823 32.46 226.543 32.46ZM228.583 27.28C229.41 27.28 230.203 27.1133 230.963 26.78C231.723 26.4467 232.35 25.9133 232.843 25.18C233.336 24.4467 233.583 23.4667 233.583 22.24V20.78L235.383 22.38C234.503 22.6867 233.503 22.9467 232.383 23.16C231.263 23.36 230.17 23.5133 229.103 23.62C227.97 23.74 227.123 23.9333 226.563 24.2C226.003 24.4667 225.723 24.9067 225.723 25.52C225.723 26.1067 225.963 26.5467 226.443 26.84C226.936 27.1333 227.65 27.28 228.583 27.28Z" fill="white"/>
</svg>
